<?xml version="1.0" encoding="UTF-8" standalone="no"?>
<!-- Created with Inkscape (http://www.inkscape.org/) -->

<svg
   xmlns:dc="http://purl.org/dc/elements/1.1/"
   xmlns:cc="http://creativecommons.org/ns#"
   xmlns:rdf="http://www.w3.org/1999/02/22-rdf-syntax-ns#"
   xmlns:svg="http://www.w3.org/2000/svg"
   xmlns="http://www.w3.org/2000/svg"
   xmlns:sodipodi="http://sodipodi.sourceforge.net/DTD/sodipodi-0.dtd"
   xmlns:inkscape="http://www.inkscape.org/namespaces/inkscape"
   width="210mm"
   height="297mm"
   viewBox="0 0 210 297"
   version="1.1"
   id="svg8"
   sodipodi:docname="Heart.svg"
   inkscape:version="0.92.2 5c3e80d, 2017-08-06"
   inkscape:export-filename="/home/nicolas/Documents/Jeux/Unity/Shmup-poc/Shmup-poc/Assets/Textures/Heart.png"
   inkscape:export-xdpi="96"
   inkscape:export-ydpi="96">
  <defs
     id="defs2">
    <inkscape:path-effect
       effect="envelope"
       id="path-effect821"
       is_visible="true"
       yy="true"
       xx="true"
       bendpath1="M 33.141418,104.83321 H 105.57146"
       bendpath2="m 105.57146,104.83321 v 112.2532"
       bendpath3="M 33.141418,217.08641 H 105.57146"
       bendpath4="m 33.141418,104.83321 v 112.2532" />
    <inkscape:path-effect
       effect="envelope"
       id="path-effect821-3"
       is_visible="true"
       yy="true"
       xx="true"
       bendpath1="m 37.697217,107.13923 c 39.821303,-2.53028 58.614815,-6.42172 71.684533,-7.417483"
       bendpath2="m 106.956,103.18209 c 6.00293,38.41917 3.93966,77.37479 -1.38454,113.90432"
       bendpath3="M 33.141418,217.08641 H 105.57146"
       bendpath4="M 56.046772,109.76346 33.141418,217.08641"
       bendpath2-nodetypes="cc"
       bendpath1-nodetypes="cc"
       bendpath4-nodetypes="cc" />
    <inkscape:path-effect
       effect="envelope"
       id="path-effect821-3-7"
       is_visible="true"
       yy="true"
       xx="true"
       bendpath1="m 37.697217,107.13923 c 39.821303,-2.53028 58.614815,-6.42172 71.684533,-7.417483"
       bendpath2="m 106.956,103.18209 c 6.00293,38.41917 3.93966,77.37479 -1.38454,113.90432"
       bendpath3="M 38.113271,242.8872 105.57146,217.08641"
       bendpath4="M 56.046772,109.76346 33.141418,217.08641"
       bendpath2-nodetypes="cc"
       bendpath1-nodetypes="cc"
       bendpath4-nodetypes="cc"
       bendpath3-nodetypes="cc" />
    <inkscape:path-effect
       effect="envelope"
       id="path-effect821-3-7-3"
       is_visible="true"
       yy="true"
       xx="true"
       bendpath1="m 37.697217,107.13923 c 39.821303,-2.53028 58.614815,-6.42172 71.684533,-7.417483"
       bendpath2="m 106.956,103.18209 c 6.00293,38.41917 -3.69479,71.36234 -9.01899,107.89187"
       bendpath3="m 49.02685,224.60977 48.302873,1.78933"
       bendpath4="M 56.046772,109.76346 C 41.617897,144.98465 40.635875,181.30064 33.141418,217.08641"
       bendpath2-nodetypes="cc"
       bendpath1-nodetypes="cc"
       bendpath4-nodetypes="cc"
       bendpath3-nodetypes="cc" />
    <inkscape:path-effect
       effect="envelope"
       id="path-effect821-3-7-3-6"
       is_visible="true"
       yy="true"
       xx="true"
       bendpath1="m 37.697217,107.13923 c 39.821303,-2.53028 58.614815,-6.42172 71.684533,-7.417483"
       bendpath2="m 106.956,103.18209 c 6.00293,38.41917 3.93966,77.37479 -1.38454,113.90432"
       bendpath3="M 38.113271,242.8872 105.57146,217.08641"
       bendpath4="M 56.046772,109.76346 33.141418,217.08641"
       bendpath2-nodetypes="cc"
       bendpath1-nodetypes="cc"
       bendpath4-nodetypes="cc"
       bendpath3-nodetypes="cc" />
    <inkscape:path-effect
       effect="envelope"
       id="path-effect821-3-7-3-9"
       is_visible="true"
       yy="true"
       xx="true"
       bendpath1="m 37.697217,107.13923 c 39.821303,-2.53028 58.614815,-6.42172 71.684533,-7.417483"
       bendpath2="m 106.956,103.18209 c 6.00293,38.41917 3.93966,77.37479 -1.38454,113.90432"
       bendpath3="m 42.214647,223.13724 63.356813,-6.05083"
       bendpath4="M 56.046772,109.76346 33.141418,217.08641"
       bendpath2-nodetypes="cc"
       bendpath1-nodetypes="cc"
       bendpath4-nodetypes="cc"
       bendpath3-nodetypes="cc" />
    <inkscape:path-effect
       effect="envelope"
       id="path-effect821-3-7-3-2"
       is_visible="true"
       yy="true"
       xx="true"
       bendpath1="m 37.697217,107.13923 c 39.821303,-2.53028 58.614815,-6.42172 71.684533,-7.417483"
       bendpath2="m 106.956,103.18209 c 6.00293,38.41917 -3.69479,71.36234 -9.01899,107.89187"
       bendpath3="m 49.02685,224.60977 48.302873,1.78933"
       bendpath4="M 56.046772,109.76346 33.141418,217.08641"
       bendpath2-nodetypes="cc"
       bendpath1-nodetypes="cc"
       bendpath4-nodetypes="cc"
       bendpath3-nodetypes="cc" />
    <inkscape:path-effect
       effect="envelope"
       id="path-effect821-3-7-3-0"
       is_visible="true"
       yy="true"
       xx="true"
       bendpath1="m 37.697217,107.13923 c 39.821303,-2.53028 58.614815,-6.42172 71.684533,-7.417483"
       bendpath2="m 106.956,103.18209 c 6.00293,38.41917 -3.69479,71.36234 -9.01899,107.89187"
       bendpath3="m 49.02685,224.60977 48.302873,1.78933"
       bendpath4="M 56.046772,109.76346 33.141418,217.08641"
       bendpath2-nodetypes="cc"
       bendpath1-nodetypes="cc"
       bendpath4-nodetypes="cc"
       bendpath3-nodetypes="cc" />
    <inkscape:path-effect
       effect="envelope"
       id="path-effect821-3-7-3-26"
       is_visible="true"
       yy="true"
       xx="true"
       bendpath1="m 37.697217,107.13923 c 39.821303,-2.53028 58.614815,-6.42172 71.684533,-7.417483"
       bendpath2="m 106.956,103.18209 c 6.00293,38.41917 -3.69479,71.36234 -9.01899,107.89187"
       bendpath3="m 49.02685,224.60977 48.302873,1.78933"
       bendpath4="M 56.046772,109.76346 C 41.617897,144.98465 40.635875,181.30064 33.141418,217.08641"
       bendpath2-nodetypes="cc"
       bendpath1-nodetypes="cc"
       bendpath4-nodetypes="cc"
       bendpath3-nodetypes="cc" />
    <inkscape:path-effect
       effect="envelope"
       id="path-effect821-3-7-3-26-8"
       is_visible="true"
       yy="true"
       xx="true"
       bendpath1="m 37.697217,107.13923 c 39.821303,-2.53028 58.614815,-6.42172 71.684533,-7.417483"
       bendpath2="m 106.956,103.18209 c 6.00293,38.41917 -3.69479,71.36234 -9.01899,107.89187"
       bendpath3="m 49.02685,224.60977 48.302873,1.78933"
       bendpath4="M 56.046772,109.76346 C 41.617897,144.98465 40.635875,181.30064 33.141418,217.08641"
       bendpath2-nodetypes="cc"
       bendpath1-nodetypes="cc"
       bendpath4-nodetypes="cc"
       bendpath3-nodetypes="cc" />
    <inkscape:path-effect
       effect="envelope"
       id="path-effect821-3-7-3-26-8-9"
       is_visible="true"
       yy="true"
       xx="true"
       bendpath1="m 37.697217,107.13923 c 39.821303,-2.53028 58.614815,-6.42172 71.684533,-7.417483"
       bendpath2="m 106.956,103.18209 c 6.00293,38.41917 -3.69479,71.36234 -9.01899,107.89187"
       bendpath3="m 49.02685,224.60977 48.302873,1.78933"
       bendpath4="M 56.046772,109.76346 C 41.617897,144.98465 40.635875,181.30064 33.141418,217.08641"
       bendpath2-nodetypes="cc"
       bendpath1-nodetypes="cc"
       bendpath4-nodetypes="cc"
       bendpath3-nodetypes="cc" />
    <inkscape:path-effect
       effect="envelope"
       id="path-effect821-3-7-3-26-8-9-0"
       is_visible="true"
       yy="true"
       xx="true"
       bendpath1="m 37.697217,107.13923 c 39.821303,-2.53028 58.614815,-6.42172 71.684533,-7.417483"
       bendpath2="m 106.956,103.18209 c 6.00293,38.41917 -3.69479,71.36234 -9.01899,107.89187"
       bendpath3="m 49.02685,224.60977 48.302873,1.78933"
       bendpath4="M 56.046772,109.76346 C 41.617897,144.98465 40.635875,181.30064 33.141418,217.08641"
       bendpath2-nodetypes="cc"
       bendpath1-nodetypes="cc"
       bendpath4-nodetypes="cc"
       bendpath3-nodetypes="cc" />
  </defs>
  <sodipodi:namedview
     id="base"
     pagecolor="#ffffff"
     bordercolor="#666666"
     borderopacity="1.0"
     inkscape:pageopacity="0.0"
     inkscape:pageshadow="2"
     inkscape:zoom="0.98994949"
     inkscape:cx="440.3752"
     inkscape:cy="451.12142"
     inkscape:document-units="mm"
     inkscape:current-layer="layer2"
     showgrid="false"
     inkscape:window-width="1920"
     inkscape:window-height="1056"
     inkscape:window-x="0"
     inkscape:window-y="0"
     inkscape:window-maximized="1" />
  <metadata
     id="metadata5">
    <rdf:RDF>
      <cc:Work
         rdf:about="">
        <dc:format>image/svg+xml</dc:format>
        <dc:type
           rdf:resource="http://purl.org/dc/dcmitype/StillImage" />
        <dc:title></dc:title>
      </cc:Work>
    </rdf:RDF>
  </metadata>
  <g
     inkscape:groupmode="layer"
     id="layer2"
     inkscape:label="Calque 2">
    <path
       transform="matrix(1.1171493,0.36018457,-0.3446794,1.1674035,102.07939,-77.052809)"
       style="fill:#ff7d9b;fill-opacity:1;stroke:none;stroke-width:0.26499999;stroke-linecap:round;stroke-linejoin:round;stroke-miterlimit:4;stroke-dasharray:none;stroke-opacity:0.45791243"
       id="path819-6-5-5-1-7-2"
       sodipodi:type="arc"
       sodipodi:cx="69.356438"
       sodipodi:cy="160.95981"
       sodipodi:rx="36.215019"
       sodipodi:ry="56.126598"
       sodipodi:start="1.4352095"
       sodipodi:end="1.4237775"
       sodipodi:open="true"
       d="m 76.39225,224.72932 c -3.09762,1.36212 -6.200155,0.52964 -9.795757,-2.15957 -3.497465,-2.61582 -7.652378,-7.20017 -11.572299,-12.66881 -3.951378,-5.51252 -7.716622,-11.99954 -10.24704,-18.71877 -2.586157,-6.86724 -3.794335,-13.67356 -3.521625,-20.92125 0.08789,-2.33571 0.326987,-4.66122 0.696887,-6.98911 10e-7,-10e-6 0.0095,-0.0598 0.0095,-0.0598 1.049296,-6.56401 3.106882,-12.85858 5.31436,-18.7452 1.320082,-3.52021 5.325047,-13.4945 6.346133,-16.07763 1.849072,-4.67776 3.811327,-9.77947 6.00741,-13.68886 2.332394,-4.15205 5.212334,-7.55786 9.1074,-9.42776 4.625485,-2.22056 9.966315,-1.88322 15.37995,0.72717 0,0 3e-6,0 3e-6,0 7.286449,3.50262 13.286766,10.20155 17.165252,17.61663 3.85859,7.37704 6.14553,16.27116 6.01403,26.06248 -0.0355,2.64678 -0.24423,5.33975 -0.62571,8.10768 0,0 -0.008,0.0596 -0.008,0.0596 -1.53134,11.04397 -6.14495,24.4636 -10.981316,36.33568 -5.066563,12.43715 -10.524509,23.12238 -15.772153,28.08711 0,0 -2e-6,0 -2e-6,0 -1.094659,1.03986 -2.170102,1.81875 -3.24606,2.33586"
       inkscape:path-effect="#path-effect821-3-7-3-26-8-9" />
    <path
       transform="matrix(-1.1171493,0.36018457,0.3446794,1.1674035,115.74455,-77.186444)"
       style="fill:#ff7d9b;fill-opacity:1;stroke:none;stroke-width:0.26499999;stroke-linecap:round;stroke-linejoin:round;stroke-miterlimit:4;stroke-dasharray:none;stroke-opacity:0.45791243"
       id="path819-6-5-5-1-7-2-2"
       sodipodi:type="arc"
       sodipodi:cx="69.356438"
       sodipodi:cy="160.95981"
       sodipodi:rx="36.215019"
       sodipodi:ry="56.126598"
       sodipodi:start="1.4352095"
       sodipodi:end="1.4237775"
       sodipodi:open="true"
       d="m 76.39225,224.72932 c -3.09762,1.36212 -6.200155,0.52964 -9.795757,-2.15957 -3.497465,-2.61582 -7.652378,-7.20017 -11.572299,-12.66881 -3.951378,-5.51252 -7.716622,-11.99954 -10.24704,-18.71877 -2.586157,-6.86724 -3.794335,-13.67356 -3.521625,-20.92125 0.08789,-2.33571 0.326987,-4.66122 0.696887,-6.98911 10e-7,-10e-6 0.0095,-0.0598 0.0095,-0.0598 1.049296,-6.56401 3.106882,-12.85858 5.31436,-18.7452 1.320082,-3.52021 5.325047,-13.4945 6.346133,-16.07763 1.849072,-4.67776 3.811327,-9.77947 6.00741,-13.68886 2.332394,-4.15205 5.212334,-7.55786 9.1074,-9.42776 4.625485,-2.22056 9.966315,-1.88322 15.37995,0.72717 0,0 3e-6,0 3e-6,0 7.286449,3.50262 13.286766,10.20155 17.165252,17.61663 3.85859,7.37704 6.14553,16.27116 6.01403,26.06248 -0.0355,2.64678 -0.24423,5.33975 -0.62571,8.10768 0,0 -0.008,0.0596 -0.008,0.0596 -1.53134,11.04397 -6.14495,24.4636 -10.981316,36.33568 -5.066563,12.43715 -10.524509,23.12238 -15.772153,28.08711 0,0 -2e-6,0 -2e-6,0 -1.094659,1.03986 -2.170102,1.81875 -3.24606,2.33586"
       inkscape:path-effect="#path-effect821-3-7-3-26-8-9-0" />
  </g>
  <g
     inkscape:label="Calque 1"
     inkscape:groupmode="layer"
     id="layer1"
     sodipodi:insensitive="true">
    <path
       transform="rotate(17.146813,161.54692,326.92778)"
       style="fill:#ff003c;fill-opacity:1;stroke:none;stroke-width:0.26499999;stroke-linecap:round;stroke-linejoin:round;stroke-miterlimit:4;stroke-dasharray:none;stroke-opacity:0.45791243"
       id="path819-6-5-5"
       sodipodi:type="arc"
       sodipodi:cx="69.356438"
       sodipodi:cy="160.95981"
       sodipodi:rx="36.215019"
       sodipodi:ry="56.126598"
       sodipodi:start="1.4352095"
       sodipodi:end="1.4237775"
       sodipodi:open="true"
       d="m 76.39225,224.72932 c -3.09762,1.36212 -6.200155,0.52964 -9.795757,-2.15957 -3.497465,-2.61582 -7.652378,-7.20017 -11.572299,-12.66881 -3.951378,-5.51252 -7.716622,-11.99954 -10.24704,-18.71877 -2.586157,-6.86724 -3.794335,-13.67356 -3.521625,-20.92125 0.08789,-2.33571 0.326987,-4.66122 0.696887,-6.98911 10e-7,-10e-6 0.0095,-0.0598 0.0095,-0.0598 1.049296,-6.56401 3.106882,-12.85858 5.31436,-18.7452 1.320082,-3.52021 5.325047,-13.4945 6.346133,-16.07763 1.849072,-4.67776 3.811327,-9.77947 6.00741,-13.68886 2.332394,-4.15205 5.212334,-7.55786 9.1074,-9.42776 4.625485,-2.22056 9.966315,-1.88322 15.37995,0.72717 0,0 3e-6,0 3e-6,0 7.286449,3.50262 13.286766,10.20155 17.165252,17.61663 3.85859,7.37704 6.14553,16.27116 6.01403,26.06248 -0.0355,2.64678 -0.24423,5.33975 -0.62571,8.10768 0,0 -0.008,0.0596 -0.008,0.0596 -1.53134,11.04397 -6.14495,24.4636 -10.981316,36.33568 -5.066563,12.43715 -10.524509,23.12238 -15.772153,28.08711 0,0 -2e-6,0 -2e-6,0 -1.094659,1.03986 -2.170102,1.81875 -3.24606,2.33586"
       inkscape:path-effect="#path-effect821-3-7-3" />
    <path
       transform="matrix(-0.95555245,0.29482117,0.29482117,0.95555245,115.22969,-33.096312)"
       style="fill:#ff003c;fill-opacity:1;stroke:none;stroke-width:0.26499999;stroke-linecap:round;stroke-linejoin:round;stroke-miterlimit:4;stroke-dasharray:none;stroke-opacity:0.45791243"
       id="path819-6-5-5-1"
       sodipodi:type="arc"
       sodipodi:cx="69.356438"
       sodipodi:cy="160.95981"
       sodipodi:rx="36.215019"
       sodipodi:ry="56.126598"
       sodipodi:start="1.4352095"
       sodipodi:end="1.4237775"
       sodipodi:open="true"
       d="m 76.39225,224.72932 c -3.09762,1.36212 -6.200155,0.52964 -9.795757,-2.15957 -3.497465,-2.61582 -7.652378,-7.20017 -11.572299,-12.66881 -3.951378,-5.51252 -7.716622,-11.99954 -10.24704,-18.71877 -2.586157,-6.86724 -3.794335,-13.67356 -3.521625,-20.92125 0.08789,-2.33571 0.326987,-4.66122 0.696887,-6.98911 10e-7,-10e-6 0.0095,-0.0598 0.0095,-0.0598 1.049296,-6.56401 3.106882,-12.85858 5.31436,-18.7452 1.320082,-3.52021 5.325047,-13.4945 6.346133,-16.07763 1.849072,-4.67776 3.811327,-9.77947 6.00741,-13.68886 2.332394,-4.15205 5.212334,-7.55786 9.1074,-9.42776 4.625485,-2.22056 9.966315,-1.88322 15.37995,0.72717 0,0 3e-6,0 3e-6,0 7.286449,3.50262 13.286766,10.20155 17.165252,17.61663 3.85859,7.37704 6.14553,16.27116 6.01403,26.06248 -0.0355,2.64678 -0.24423,5.33975 -0.62571,8.10768 0,0 -0.008,0.0596 -0.008,0.0596 -1.53134,11.04397 -6.14495,24.4636 -10.981316,36.33568 -5.066563,12.43715 -10.524509,23.12238 -15.772153,28.08711 0,0 -2e-6,0 -2e-6,0 -1.094659,1.03986 -2.170102,1.81875 -3.24606,2.33586"
       inkscape:path-effect="#path-effect821-3-7-3-26" />
  </g>
</svg>
