<?xml version="1.0" encoding="UTF-8" standalone="no"?>
<!-- Created with Inkscape (http://www.inkscape.org/) -->

<svg
   xmlns:dc="http://purl.org/dc/elements/1.1/"
   xmlns:cc="http://creativecommons.org/ns#"
   xmlns:rdf="http://www.w3.org/1999/02/22-rdf-syntax-ns#"
   xmlns:svg="http://www.w3.org/2000/svg"
   xmlns="http://www.w3.org/2000/svg"
   xmlns:xlink="http://www.w3.org/1999/xlink"
   xmlns:sodipodi="http://sodipodi.sourceforge.net/DTD/sodipodi-0.dtd"
   xmlns:inkscape="http://www.inkscape.org/namespaces/inkscape"
   width="210mm"
   height="297mm"
   viewBox="0 0 210 297"
   version="1.1"
   id="svg832"
   inkscape:version="0.92.2 5c3e80d, 2017-08-06"
   sodipodi:docname="Meteorite03.svg"
   inkscape:export-filename="/home/nicolas/Documents/Jeux/Unity/Xeno-Space/Shmup-poc/Assets/Textures/Meteorite03.png"
   inkscape:export-xdpi="96"
   inkscape:export-ydpi="96">
  <defs
     id="defs826">
    <inkscape:path-effect
       effect="envelope"
       id="path-effect1443"
       is_visible="true"
       yy="true"
       xx="true"
       bendpath1="M 44.099476,105.63502 H 74.568195"
       bendpath2="m 74.568195,105.63502 c -12.473437,24.1494 -17.976782,32.40863 -6.949008,38.75408"
       bendpath3="m 25.657879,177.53052 c 16.253318,-9.41724 27.357777,-34.43844 48.910316,-27.79603"
       bendpath4="m 44.099476,105.63502 c 13.693909,32.68956 0.297981,46.53401 -18.441597,56.66114"
       bendpath2-nodetypes="cc"
       bendpath3-nodetypes="cc"
       bendpath4-nodetypes="cc" />
    <inkscape:path-effect
       effect="envelope"
       id="path-effect1381"
       is_visible="true"
       yy="true"
       xx="true"
       bendpath1="m 52.384832,55.388346 c 31.72036,21.602808 47.222142,85.226434 78.042698,-9.354433"
       bendpath2="m 132.29842,103.22959 c 66.99612,64.23651 -7.12128,57.74659 20.04521,106.90781"
       bendpath3="m 38.219547,205.86108 c 26.016115,4.1125 60.951476,20.8263 93.009793,7.48355"
       bendpath4="M 47.306711,32.135898 C 36.149695,155.06666 -31.983207,217.63487 48.910328,213.34463"
       bendpath2-nodetypes="cc"
       bendpath1-nodetypes="cc"
       bendpath3-nodetypes="cc"
       bendpath4-nodetypes="cc" />
    <radialGradient
       inkscape:collect="always"
       xlink:href="#linearGradient1466"
       id="radialGradient1468"
       cx="84.32354"
       cy="154.67897"
       fx="84.32354"
       fy="154.67897"
       r="63.34288"
       gradientTransform="matrix(1,0,0,0.58438819,-0.40090856,62.816433)"
       gradientUnits="userSpaceOnUse" />
    <linearGradient
       inkscape:collect="always"
       id="linearGradient1466">
      <stop
         style="stop-color:#000000;stop-opacity:1;"
         offset="0"
         id="stop1462" />
      <stop
         style="stop-color:#000000;stop-opacity:0;"
         offset="1"
         id="stop1464" />
    </linearGradient>
  </defs>
  <sodipodi:namedview
     id="base"
     pagecolor="#ffffff"
     bordercolor="#666666"
     borderopacity="1.0"
     inkscape:pageopacity="0.0"
     inkscape:pageshadow="2"
     inkscape:zoom="0.98994949"
     inkscape:cx="343.97297"
     inkscape:cy="601.71408"
     inkscape:document-units="mm"
     inkscape:current-layer="layer2"
     showgrid="false"
     inkscape:window-width="1920"
     inkscape:window-height="1056"
     inkscape:window-x="0"
     inkscape:window-y="0"
     inkscape:window-maximized="1" />
  <metadata
     id="metadata829">
    <rdf:RDF>
      <cc:Work
         rdf:about="">
        <dc:format>image/svg+xml</dc:format>
        <dc:type
           rdf:resource="http://purl.org/dc/dcmitype/StillImage" />
        <dc:title></dc:title>
      </cc:Work>
    </rdf:RDF>
  </metadata>
  <g
     inkscape:label="Calque 1"
     inkscape:groupmode="layer"
     id="layer1"
     sodipodi:insensitive="true">
    <path
       style="fill:#3a2000;fill-opacity:1;stroke:none;stroke-width:0.26499999;stroke-linecap:round;stroke-linejoin:round;stroke-miterlimit:4;stroke-dasharray:none;stroke-opacity:1"
       id="path1377"
       sodipodi:type="arc"
       sodipodi:cx="89.66893"
       sodipodi:cy="129.68927"
       sodipodi:rx="40.758602"
       sodipodi:ry="83.655357"
       sodipodi:start="1.4352087"
       sodipodi:end="1.4237768"
       sodipodi:open="true"
       d="m 91.392275,216.43993 c -0.391802,0.0722 -0.777333,0.13236 -1.156714,0.18085 0,0 -4e-6,0 -4e-6,0 -1.432066,0.18509 -2.784072,0.19127 -4.041042,0.0813 -1.135216,-0.10004 -2.269276,-0.30171 -3.374933,-0.58184 0,0 -4e-6,0 -4e-6,0 -0.122542,-0.0311 -0.24534,-0.0633 -0.368409,-0.0966 -1.078113,-0.29169 -2.20224,-0.67787 -3.347779,-1.16042 -3.199353,-1.34677 -6.635953,-3.42442 -10.318116,-5.98977 -4.7534,-3.28256 -9.864853,-7.21132 -15.177882,-10.52184 -2.862177,-1.78301 -5.657406,-3.32911 -8.694412,-4.76871 -2.224008,-1.06494 -4.217799,-1.85351 -6.378176,-2.65906 -0.35897,-0.13895 -0.7072,-0.27257 -1.06037,-0.40812 -1.633845,-0.60808 -3.298818,-1.14723 -4.874918,-1.70664 -0.13856,-0.049 -0.276397,-0.0982 -0.413226,-0.1476 -1.636016,-0.5636 -3.206526,-1.33739 -4.723046,-2.35148 -1.622087,-1.11596 -2.98347,-2.48278 -4.167968,-4.11974 -0.02124,-0.0293 -0.04242,-0.0586 -0.06354,-0.088 -2.833166,-4.01432 -4.184783,-8.45942 -4.58754,-13.86199 -0.01194,-0.15591 -0.0231,-0.31236 -0.03351,-0.46937 -0.312433,-4.76542 0.145338,-9.89425 1.282218,-15.59905 0.06894,-0.34677 0.140342,-0.69509 0.214122,-1.04494 0.450052,-2.13409 0.988301,-4.3234 1.594553,-6.55613 0.904683,-3.33176 1.967873,-6.76532 3.130059,-10.1955 0,0 2e-6,-1e-5 2e-6,-1e-5 2.390377,-7.05704 5.239158,-14.20562 8.132556,-20.49691 7.9e-5,-1.8e-4 0.169324,-0.36886 0.169404,-0.36903 4.505102,-9.78812 9.34875,-18.359206 13.833817,-24.145954 2.065822,-2.665073 4.135683,-4.818596 6.281403,-6.424354 4.770653,-3.584143 9.583965,-4.248744 15.020031,-2.510064 4.158317,1.323787 8.37379,4.018751 12.807907,7.130751 2.777575,1.96776 5.773921,4.191208 8.753202,5.902138 0.573841,0.329543 1.151686,0.643237 1.735951,0.938267 0,0 4e-6,2e-6 4e-6,2e-6 1.325909,0.669584 2.696579,1.227606 4.087468,1.576881 0,0 5e-6,10e-7 5e-6,10e-7 0.158181,0.03972 0.316798,0.0768 0.475882,0.111102 1.452878,0.313278 2.952965,0.380982 4.424838,0.164743 0,0 0,-10e-7 0,-10e-7 1.61363,-0.237151 3.22011,-0.813676 4.73903,-1.567269 0,0 10e-6,-3e-6 10e-6,-3e-6 1.9266,-0.954951 3.79305,-2.18951 5.52628,-3.367099 4.93006,-3.334263 9.19525,-6.050132 13.2405,-5.848909 0.64735,0.0327 1.27863,0.14247 1.89694,0.333978 6.65247,1.942158 11.7688,12.019903 18.5659,25.18859 3.49176,6.80431 10.44985,19.80183 13.12538,26.15504 0,0 0,1e-5 0,1e-5 0.0435,0.10338 0.0868,0.20667 0.12978,0.30986 0.97042,2.32687 1.77348,4.60148 2.32436,6.80645 0.71161,2.84828 0.98514,5.51591 0.694,7.9527 -0.24909,2.08939 -0.89413,3.93111 -1.82213,5.55394 -0.7222,1.26306 -1.60607,2.37778 -2.59071,3.38002 -2.22926,2.26726 -5.04864,4.05224 -7.68023,5.9039 -0.0885,0.063 -0.17703,0.12606 -0.26552,0.1893 -3.14458,2.2384 -5.81856,4.40688 -8.51899,7.39482 5.6e-4,-6.1e-4 -0.0597,0.065 -0.0591,0.0644 -1.09886,1.22255 -2.10613,2.33127 -3.21105,3.45679 -1.02401,1.00654 -2.13937,1.96905 -3.43024,2.943 -1.43005,1.05695 -2.87463,2.31015 -4.39975,3.78799 -0.28741,0.29102 -0.57209,0.58715 -0.85473,0.88863 -1.65429,1.74372 -3.20783,3.60631 -4.80442,5.62046 -2.24506,2.91349 -4.5864,5.82885 -7.1316,8.6436 -0.83526,0.93085 -1.69391,1.84966 -2.57761,2.75143 0,0 0,0 0,0 -5.50804,5.60224 -11.50345,10.0028 -17.350906,12.27754 -1.38815,0.54546 -2.749063,0.95673 -4.052991,1.23725"
       inkscape:path-effect="#path-effect1381" />
  </g>
  <g
     inkscape:groupmode="layer"
     id="layer3"
     inkscape:label="Calque 3">
    <path
       style="fill:url(#radialGradient1468);fill-opacity:1;stroke:none;stroke-width:1.82909095;stroke-linecap:round;stroke-linejoin:round;stroke-miterlimit:4;stroke-dasharray:none;stroke-opacity:1"
       id="path1445-3"
       sodipodi:type="arc"
       sodipodi:cx="83.92263"
       sodipodi:cy="153.20898"
       sodipodi:rx="63.34288"
       sodipodi:ry="37.01683"
       sodipodi:start="1.4352087"
       sodipodi:end="1.4237768"
       sodipodi:open="true"
       d="M 92.48485,189.88608 A 63.34288,37.01683 0 0 1 21.185833,158.31745 63.34288,37.01683 0 0 1 75.001811,116.56109 63.34288,37.01683 0 0 1 146.60844,147.89105 63.34288,37.01683 0 0 1 93.201758,189.82648" />
  </g>
  <g
     inkscape:groupmode="layer"
     id="layer2"
     inkscape:label="Calque 2">
    <path
       style="fill:#000000;fill-opacity:1;stroke:none;stroke-width:0.14076917;stroke-linecap:round;stroke-linejoin:round;stroke-miterlimit:4;stroke-dasharray:none;stroke-opacity:1"
       id="path1441"
       sodipodi:type="arc"
       sodipodi:cx="59.333836"
       sodipodi:cy="127.68475"
       sodipodi:rx="15.23436"
       sodipodi:ry="22.049736"
       sodipodi:start="1.4352087"
       sodipodi:end="1.4237768"
       sodipodi:open="true"
       d="m 50.573408,155.37581 c -0.841062,0.70906 -1.643201,1.41674 -2.49803,2.17749 0,0 -2e-6,0 -2e-6,0 -3.977587,3.53827 -8.340365,7.49965 -11.493829,7.27872 -1.833006,-0.12854 -2.712703,-1.81401 -1.954702,-4.82621 0.337974,-1.17876 0.917043,-2.43334 1.712913,-3.7441 1.691781,-2.77842 3.879783,-5.16686 6.228422,-7.92276 1.550368,-1.82763 2.968873,-3.62633 4.075595,-5.52635 0.06921,-0.11882 0.137103,-0.23787 0.203662,-0.3572 0,0 10e-7,0 10e-7,0 2.026036,-3.6344 2.579178,-7.14271 2.227418,-11.11795 0,0 0,0 0,0 -0.139366,-1.57645 -0.413432,-3.13989 -0.737078,-4.68642 0,0 0,0 0,0 -0.847556,-4.04336 -1.770774,-7.31274 -1.663082,-10.51579 0.104176,-3.09852 1.228475,-5.38226 3.231162,-7.15436 0,0 10e-7,0 10e-7,0 2.102251,-1.87196 4.877349,-2.88663 7.132916,-3.26917 0.973014,-0.16503 1.864955,-0.21815 2.66192,-0.19234 0,0 0,0 10e-7,0 2.229638,0.0729 4.342632,0.84472 6.17848,2.02706 1.441778,0.9055 2.840141,2.27832 3.439053,4.27969 0.612402,2.04644 0.242683,4.21545 -0.85066,6.55226 0,0 0,0 0,0 -0.428418,0.91986 -0.939125,1.80595 -1.475561,2.70162 0,0 -10e-7,0 -10e-7,0 -0.268403,0.44757 -0.521212,0.86007 -0.789614,1.30764 -1.09267,1.823 -1.918719,3.39086 -2.45605,5.50475 0,0 -1e-6,0 -1e-6,0 -0.376469,1.47647 -0.556289,2.99171 -0.69248,4.7183 0,0 10e-7,0 10e-7,0 -0.198401,2.30033 -0.242867,4.87816 -0.426305,7.30482 -0.08808,1.21104 -0.212609,2.37598 -0.426274,3.47146 -0.434363,2.79695 -1.580278,4.32031 -3.635014,5.96729 0,0 -2e-6,0 -2e-6,0 -2.223292,1.84551 -4.99686,3.51752 -7.746119,5.81446"
       inkscape:path-effect="#path-effect1443" />
    <path
       style="fill:#000000;fill-opacity:1;stroke:none;stroke-width:0.26499999;stroke-linecap:round;stroke-linejoin:round;stroke-miterlimit:4;stroke-dasharray:none;stroke-opacity:1"
       id="path1445"
       sodipodi:type="arc"
       sodipodi:cx="121.74126"
       sodipodi:cy="120.33484"
       sodipodi:rx="7.0826426"
       sodipodi:ry="6.9490075"
       sodipodi:start="1.4352087"
       sodipodi:end="1.4237768"
       sodipodi:open="true"
       d="m 122.69864,127.22007 a 7.0826426,6.9490075 0 0 1 -7.97226,-5.92624 7.0826426,6.9490075 0 0 1 6.0174,-7.83874 7.0826426,6.9490075 0 0 1 8.00665,5.88144 7.0826426,6.9490075 0 0 1 -5.97163,7.87235" />
  </g>
</svg>
