<?xml version="1.0" encoding="UTF-8" standalone="no"?>
<!-- Created with Inkscape (http://www.inkscape.org/) -->

<svg
   xmlns:dc="http://purl.org/dc/elements/1.1/"
   xmlns:cc="http://creativecommons.org/ns#"
   xmlns:rdf="http://www.w3.org/1999/02/22-rdf-syntax-ns#"
   xmlns:svg="http://www.w3.org/2000/svg"
   xmlns="http://www.w3.org/2000/svg"
   xmlns:xlink="http://www.w3.org/1999/xlink"
   xmlns:sodipodi="http://sodipodi.sourceforge.net/DTD/sodipodi-0.dtd"
   xmlns:inkscape="http://www.inkscape.org/namespaces/inkscape"
   width="210mm"
   height="297mm"
   viewBox="0 0 210 297"
   version="1.1"
   id="svg8"
   inkscape:version="0.92.2 5c3e80d, 2017-08-06"
   sodipodi:docname="ShootSwitchCapsule.svg"
   inkscape:export-filename="/home/nicolas/Documents/Jeux/Unity/Xeno-Space/Shmup-poc/Assets/Textures/ShootSwitchCapsule03.png"
   inkscape:export-xdpi="96"
   inkscape:export-ydpi="96">
  <defs
     id="defs2">
    <linearGradient
       inkscape:collect="always"
       id="linearGradient1033">
      <stop
         style="stop-color:#3ccc3c;stop-opacity:1;"
         offset="0"
         id="stop1029" />
      <stop
         style="stop-color:#3ccc3c;stop-opacity:0;"
         offset="1"
         id="stop1031" />
    </linearGradient>
    <inkscape:path-effect
       effect="envelope"
       id="path-effect843"
       is_visible="true"
       yy="true"
       xx="true"
       bendpath1="M 15.234366,67.148218 C 72.567411,71.053667 129.91527,75.25536 186.55414,65.277332"
       bendpath2="m 151.00729,68.484566 c 5.18025,47.841244 3.2797,95.682484 0,143.523724"
       bendpath3="M 22.450643,213.34464 C 72.690954,205.50615 124.33433,201.72095 180.94148,212.27556"
       bendpath4="m 52.117561,68.484566 c -4.138896,45.254434 -1.210891,94.925674 0,143.523724"
       bendpath1-nodetypes="cc"
       bendpath3-nodetypes="cc"
       bendpath2-nodetypes="cc"
       bendpath4-nodetypes="cc" />
    <inkscape:path-effect
       effect="envelope"
       id="path-effect839"
       is_visible="true"
       yy="true"
       xx="true"
       bendpath1="M 66.901787,77.773811 96.102833,138.97853"
       bendpath2="M 142.875,77.773811 V 208.55357"
       bendpath3="M 66.901787,208.55357 H 142.875"
       bendpath4="M 66.901787,77.773811 V 208.55357"
       bendpath1-nodetypes="cc" />
    <radialGradient
       inkscape:collect="always"
       xlink:href="#linearGradient1033"
       id="radialGradient1035"
       cx="146.77875"
       cy="-76.02224"
       fx="146.77875"
       fy="-76.02224"
       r="70.066338"
       gradientTransform="matrix(1,0,0,0.03620856,0,-73.269584)"
       gradientUnits="userSpaceOnUse" />
  </defs>
  <sodipodi:namedview
     id="base"
     pagecolor="#ffffff"
     bordercolor="#666666"
     borderopacity="1.0"
     inkscape:pageopacity="0.0"
     inkscape:pageshadow="2"
     inkscape:zoom="0.98994949"
     inkscape:cx="236.75417"
     inkscape:cy="558.33444"
     inkscape:document-units="mm"
     inkscape:current-layer="layer3"
     showgrid="false"
     inkscape:window-width="1920"
     inkscape:window-height="1056"
     inkscape:window-x="0"
     inkscape:window-y="0"
     inkscape:window-maximized="1" />
  <metadata
     id="metadata5">
    <rdf:RDF>
      <cc:Work
         rdf:about="">
        <dc:format>image/svg+xml</dc:format>
        <dc:type
           rdf:resource="http://purl.org/dc/dcmitype/StillImage" />
        <dc:title></dc:title>
      </cc:Work>
    </rdf:RDF>
  </metadata>
  <g
     inkscape:label="Base"
     inkscape:groupmode="layer"
     id="layer1"
     sodipodi:insensitive="true">
    <path
       style="fill:#ffcc00;fill-opacity:1;stroke:none;stroke-width:0.26499999;stroke-linecap:round;stroke-linejoin:round;stroke-miterlimit:4;stroke-dasharray:none;stroke-opacity:1"
       id="path841"
       sodipodi:type="arc"
       sodipodi:cx="101.56242"
       sodipodi:cy="140.24643"
       sodipodi:rx="49.444862"
       sodipodi:ry="71.761864"
       sodipodi:start="1.4352087"
       sodipodi:end="1.4237768"
       sodipodi:open="true"
       d="m 112.30356,205.20416 c -4.2428,0.40789 -8.6488,0.61679 -12.997636,0.62336 -9.285636,0.014 -18.58032,-0.88868 -26.269249,-3.0726 -7.831786,-2.2245 -13.745387,-5.67773 -17.599142,-10.69522 -7.778904,-10.12793 -5.804804,-25.17067 -5.448257,-42.04706 0.222716,-10.54179 -0.132193,-17.58572 -0.874418,-27.88933 -0.648011,-8.99573 -1.351538,-17.54427 0.07409,-24.697816 1.455879,-7.305314 5.098558,-13.076409 12.134739,-17.508027 6.941589,-4.372041 16.677998,-7.041275 27.720411,-8.091867 3.1348,-0.29825 6.340937,-0.461512 9.561599,-0.494877 10.405998,-0.107812 20.948778,1.136127 29.716318,3.594099 8.8847,2.490816 15.83639,6.164359 20.37756,11.24746 4.60535,5.154936 6.45813,11.371603 6.86841,18.970588 0.38743,7.17586 -0.56857,16.23745 -1.04473,24.61453 -0.61604,10.83773 -0.3927,17.40939 0.093,27.83897 0.42119,9.04482 0.75821,17.18288 -1.32906,24.23259 -2.09382,7.0718 -6.46021,12.3595 -13.62648,16.24402 -7.02115,3.80586 -16.33764,5.99654 -26.47079,7.04283"
       inkscape:path-effect="#path-effect843"
       transform="matrix(0.5267407,0,0,1.0615996,22.88551,-4.3935457)" />
  </g>
  <g
     inkscape:groupmode="layer"
     id="layer3"
     inkscape:label="Detail01">
    <path
       style="fill:url(#radialGradient1035);fill-opacity:1;stroke:none;stroke-width:0.16274717;stroke-linecap:round;stroke-linejoin:round;stroke-miterlimit:4;stroke-dasharray:none;stroke-opacity:1"
       id="path846-6"
       sodipodi:type="arc"
       sodipodi:cx="146.77875"
       sodipodi:cy="-76.02224"
       sodipodi:rx="70.066338"
       sodipodi:ry="2.5370009"
       sodipodi:start="1.4352087"
       sodipodi:end="1.4237768"
       sodipodi:open="true"
       d="m 156.24979,-73.508523 a 70.066338,2.5370009 0 0 1 -78.866965,-2.163601 70.066338,2.5370009 0 0 1 59.528215,-2.861831 70.066338,2.5370009 0 0 1 79.20723,2.147243 70.066338,2.5370009 0 0 1 -59.07547,2.874104"
       transform="matrix(0.00117042,0.99999932,-0.99819951,0.05998111,0,0)" />
  </g>
  <g
     inkscape:groupmode="layer"
     id="layer2"
     inkscape:label="Detail02"
     sodipodi:insensitive="true">
    <path
       style="fill:#ff2a2a;fill-opacity:1;stroke:none;stroke-width:0.12513587;stroke-linecap:round;stroke-linejoin:round;stroke-miterlimit:4;stroke-dasharray:none;stroke-opacity:1"
       id="path846"
       sodipodi:type="arc"
       sodipodi:cx="76.59375"
       sodipodi:cy="111.51495"
       sodipodi:rx="28.085957"
       sodipodi:ry="3.7417734"
       sodipodi:start="1.4352087"
       sodipodi:end="1.4237768"
       sodipodi:open="true"
       d="m 80.390201,115.22239 a 28.085957,3.7417734 0 0 1 -31.613673,-3.19106 28.085957,3.7417734 0 0 1 23.861769,-4.22086 28.085957,3.7417734 0 0 1 31.750063,3.16693 28.085957,3.7417734 0 0 1 -23.680285,4.23896" />
    <path
       style="fill:#ff2a2a;fill-opacity:1;stroke:none;stroke-width:0.12434934;stroke-linecap:round;stroke-linejoin:round;stroke-miterlimit:4;stroke-dasharray:none;stroke-opacity:1"
       id="path846-3"
       sodipodi:type="arc"
       sodipodi:cx="76.734528"
       sodipodi:cy="172.71967"
       sodipodi:rx="27.734003"
       sodipodi:ry="3.7417734"
       sodipodi:start="1.4352087"
       sodipodi:end="1.4237768"
       sodipodi:open="true"
       d="m 80.483404,176.4271 a 27.734003,3.7417734 0 0 1 -31.217512,-3.19106 27.734003,3.7417734 0 0 1 23.56275,-4.22085 27.734003,3.7417734 0 0 1 31.352198,3.16692 27.734003,3.7417734 0 0 1 -23.383545,4.23896" />
  </g>
</svg>
